{
  "title": "Grand Masti (2013) 720p Hindi nEW sOURCE DvDSCR X264 [xRG] -=[Sh",
  "uid": 8923146,
  "size": 941074934,
  "categoryP": "video",
  "categoryS": "hd___movies",
  "magnet": "?xt=urn:btih:8d4e5481ca8c8d399baf8c70f8b29e715c5862a6&amp;dn=Grand+Masti+%282013%29+720p+Hindi+nEW+sOURCE+DvDSCR+X264+%5BxRG%5D+-%3D%5BSh&amp;tr=udp%3A%2F%2Ftracker.openbittorrent.com%3A80&amp;tr=udp%3A%2F%2Fopen.demonii.com%3A1337&amp;tr=udp%3A%2F%2Ftracker.coppersurfer.tk%3A6969&amp;tr=udp%3A%2F%2Fexodus.desync.com%3A6969",
  "seeders": 49,
  "leechers": 5,
  "uploader": "Team_xRG",
  "files": 1,
  "time": 1379304101,
  "description": "[CENTER][B][SIZE=&quot;7&quot;][COLOR=&quot;Red&quot;]Grand Masti (2013)[/COLOR][/SIZE][/B]\n\n[img]http://s6.postimg.org/udmnbjdgx/xrg.gif[/img]\n\n[img]http://cdn.koimoi.com/wp-content/new-galleries/2013/07/Grand-Masti-Movie-Poster-Pic-1.jpg[/img]\n\n[CODE]http://www.imdb.com/title/tt2476154/[/CODE]\n\n[B][SIZE=&quot;5&quot;][COLOR=&quot;Red&quot;]Rip Code[/COLOR][/SIZE][/B]\n\n[CODE]\nGeneral\nUnique ID                                : 226855221515940165141704103708681483627 (0xAAAAB9F663082B539ECC6CE48432B56B)\nComplete name                            : E:Ddh Upload My RipsGrand Masti (2013) 720p Hindi nEW sOURCE DvDSCR X264 [xRG] -=[ShareKing]=-.mkv\nFormat                                   : Matroska\nFormat version                           : Version 2\nFile size                                : 897 MiB\nDuration                                 : 2h 13mn\nOverall bit rate                         : 940 Kbps\nEncoded date                             : UTC 2013-09-16 01:26:24\nWriting application                      : mkvmerge v6.2.0 ('Promised Land') built on Apr 28 2013 12:22:01\nWriting library                          : libebml v1.3.0 + libmatroska v1.4.0\n\nVideo\nID                                       : 1\nFormat                                   : AVC\nFormat/Info                              : Advanced Video Codec\nFormat profile                           : &lt;a class=&quot;__cf_email__&quot; href=&quot;/cdn-cgi/l/email-protection&quot; data-cfemail=&quot;fab2939d92bab6c9d4cb&quot;&gt;[email&amp;#160;protected]&lt;/a&gt;&lt;script cf-hash='f9e31' type=&quot;text/javascript&quot;&gt;\n/* &lt;![CDATA[ */!function(){try{var t=&quot;currentScript&quot;in document?document.currentScript:function(){for(var t=document.getElementsByTagName(&quot;script&quot;),e=t.length;e--;)if(t[e].getAttribute(&quot;cf-hash&quot;))return t[e]}();if(t&amp;&amp;t.previousSibling){var e,r,n,i,c=t.previousSibling,a=c.getAttribute(&quot;data-cfemail&quot;);if(a){for(e=&quot;&quot;,r=parseInt(a.substr(0,2),16),n=2;a.length-n;n+=2)i=parseInt(a.substr(n,2),16)^r,e+=String.fromCharCode(i);e=document.createTextNode(e),c.parentNode.replaceChild(e,c)}}}catch(u){}}();/* ]]&gt; */&lt;/script&gt;\nFormat settings, CABAC                   : Yes\nFormat settings, ReFrames                : 5 frames\nCodec ID                                 : V_MPEG4/ISO/AVC\nDuration                                 : 2h 13mn\nBit rate                                 : 811 Kbps\nWidth                                    : 1 280 pixels\nHeight                                   : 512 pixels\nDisplay aspect ratio                     : 2.500\nFrame rate mode                          : Constant\nFrame rate                               : 23.976 fps\nColor space                              : YUV\nChroma subsampling                       : 4:2:0\nBit depth                                : 8 bits\nScan type                                : Progressive\nBits/(Pixel*Frame)                       : 0.052\nStream size                              : 757 MiB (84%)\nTitle                                    :\nWriting library                          : x264 core 133 r2334 a3ac64b\nEncoding settings                        : cabac=1 // deblock=1:-2:-1 / analyse=0x3:0x113 / me=umh / subme=5 \n/ psy=1 / psy_rd=1.00:0.00 // me_range=16 / chroma_me=1 / trellis=1 / 8x8dct=1 / cqm=0 / deadzone=21,11 \n/ fast_pskip=1 / chroma_qp_offset=0 / threads=12 / lookahead_threads=3 / sliced_threads=0 / nr=0 / decimate=1 / \ninterlaced=0 / bluray_compat=0 / constrained_intra=0 / bframes=16 / b_pyramid=2 / b_adapt=1 / b_bias=0 / direct=3 \n/ weightb=1 / open_gop=0 / weightp=2 / keyint=240 / keyint_min=23 / scenecut=40 / intra_refresh=0 / rc_lookahead=40 \n/ rc=2pass / mbtree=1 / bitrate=811 / ratetol=1.0 / qcomp=0.60 / qpmin=10 / qpmax=51 / qpstep=4 / cplxblur=20.0 / \nqblur=0.5 / ip_ratio=1.40 / aq=2:1.00\nLanguage                                 : English\nDefault                                  : Yes\nForced                                   : No\n\nAudio\nID                                       : 2\nFormat                                   : MPEG Audio\nFormat version                           : Version 1\nFormat profile                           : Layer 3\nMode                                     : Joint stereo\nMode extension                           : MS Stereo\nCodec ID                                 : A_MPEG/L3\nCodec ID/Hint                            : MP3\nDuration                                 : 2h 13mn\nBit rate mode                            : Constant\nBit rate                                 : 128 Kbps\nChannel(s)                               : 2 channels\nSampling rate                            : 48.0 KHz\nCompression mode                         : Lossy\nStream size                              : 122 MiB (14%)\nTitle                                    :\nWriting library                          : LAME3.99r\nEncoding settings                        : -m j -V 4 -q 2 -lowpass 17 -b 128\nLanguage                                 : Hindi\nDefault                                  : Yes\nForced                                   : No\n[/CODE]\n\n[B][SIZE=&quot;5&quot;][COLOR=&quot;Red&quot;]##ScreenShoot##[/COLOR][/SIZE][/B]\n\n[img]http://s6.postimg.org/6j9j79omp/screenshot_17.png[/img]\n[img]http://s6.postimg.org/7pdj62cxd/screenshot_18.png[/img]\n[img]http://s6.postimg.org/6eadbc6pd/screenshot_19.png[/img]\n[img]http://s6.postimg.org/6fkb4r8j5/screenshot_20.png[/img]\n[img]http://s6.postimg.org/ev5a8im0h/screenshot_21.png[/img]\n[img]http://s6.postimg.org/eq1iyuepd/screenshot_22.png[/img]\n[img]http://s6.postimg.org/5jj8bk9gx/screenshot_23.png[/img]\n[img]http://s6.postimg.org/7qngzher5/screenshot_24.png[/img]\n\n\n\n\n\n\n[B][SIZE=&quot;7&quot;][COLOR=&quot;Red&quot;]xRG xCLUSIVE rIP[/COLOR][/SIZE][/B][/CENTER]",
  "parsed": {
    "xt": "urn:btih:8d4e5481ca8c8d399baf8c70f8b29e715c5862a6",
    "dn": "Grand Masti (2013) 720p Hindi nEW sOURCE DvDSCR X264 [xRG] -=[Sh",
    "tr": [
      "udp://exodus.desync.com:6969",
      "udp://open.demonii.com:1337",
      "udp://tracker.coppersurfer.tk:6969",
      "udp://tracker.openbittorrent.com:80"
    ],
    "infoHash": "8d4e5481ca8c8d399baf8c70f8b29e715c5862a6",
    "infoHashBuffer": {
      "type": "Buffer",
      "data": [
        141,
        78,
        84,
        129,
        202,
        140,
        141,
        57,
        155,
        175,
        140,
        112,
        248,
        178,
        158,
        113,
        92,
        88,
        98,
        166
      ]
    },
    "name": "Grand Masti (2013) 720p Hindi nEW sOURCE DvDSCR X264 [xRG] -=[Sh",
    "announce": [
      "udp://exodus.desync.com:6969",
      "udp://open.demonii.com:1337",
      "udp://tracker.coppersurfer.tk:6969",
      "udp://tracker.openbittorrent.com:80"
    ],
    "urlList": []
  },
  "previous": 54,
  "peers": 13,
  "last_updated": "2016-12-25T07:27:40.717Z"
}